<svg width="32.000000" height="32.000000" viewBox="0 0 32 32" fill="none" xmlns="http://www.w3.org/2000/svg"
     xmlns:xlink="http://www.w3.org/1999/xlink">
    <desc>
        Created with Pixso.
    </desc>
    <path d="M13.2516 4.5C10.6465 6.49088 5.09334 10.8846 11.4006 18.0243C11.4006 18.0243 9.82379 15.0723 11.4006 11.9143C11.4006 11.9143 10.3037 15.1409 12.429 18.3675C12.429 18.3675 21.0672 12.5322 13.2516 4.5Z"
          fill-rule="evenodd" fill="#8DC73F"/>
    <path d="M13.663 25.0267C16.3367 8.75636 31.625 14.5917 31.625 14.5917C31.625 14.5917 30.9394 30.7247 14.4171 26.7429C15.7883 21.1822 20.9301 19.3286 20.9301 19.3286C16.2682 20.2211 13.663 25.0267 13.663 25.0267Z"
          fill-rule="evenodd" fill="#CDDC29"/>
    <path d="M11.4692 26.3997C11.4692 26.3997 11.4692 16.2393 0.5 18.2988C0.5 18.2988 0.5 28.8711 10.5779 27.1548C10.5779 27.1548 6.53304 26.3997 5.7789 23.8596C5.7789 23.8596 7.35573 26.3997 11.4692 26.3997Z"
          fill-rule="evenodd" fill="#A6CE39"/>
    <defs/>
</svg>
